<?xml version="1.0"?>
<!-- Generated by SVGo -->
<svg width="333.851mm" height="105.252mm"
     viewBox="0.000 0.000 333.851 105.252"
     xmlns="http://www.w3.org/2000/svg" 
     xmlns:xlink="http://www.w3.org/1999/xlink">
<polygon points="328.851,100.251 5.000,100.251 5.000,5.001 328.851,5.001" style="fill:none;stroke-width:0.050000mm;stroke:black"/>
<polygon points="181.356,83.726 181.356,84.726 180.556,84.726 180.556,87.825 181.356,87.825 181.356,88.426 179.831,88.426 179.831,85.196 178.106,85.196 178.106,84.275 174.806,84.275 174.806,85.196 173.081,85.196 173.081,88.426 172.256,88.426 172.256,91.226 173.081,91.226 173.081,97.495 174.806,97.495 174.806,98.476 178.106,98.476 178.106,97.495 179.831,97.495 179.831,93.025 181.356,93.025 181.356,93.626 180.556,93.626 180.556,96.726 181.356,96.726 181.356,97.726 195.356,97.726 195.356,96.726 196.156,96.726 196.156,93.626 195.356,93.626 195.356,93.025 196.881,93.025 196.881,97.495 198.606,97.495 198.606,98.476 201.906,98.476 201.906,97.495 203.631,97.495 203.631,91.226 204.456,91.226 204.456,88.426 203.631,88.426 203.631,85.196 201.906,85.196 201.906,84.275 198.606,84.275 198.606,85.196 196.881,85.196 196.881,88.426 195.356,88.426 195.356,87.825 196.156,87.825 196.156,84.726 195.356,84.726 195.356,83.726" style="fill:none;stroke-width:0.050000mm;stroke:black"/>
<polygon points="217.075,83.726 217.075,84.726 216.274,84.726 216.274,87.825 217.075,87.825 217.075,93.626 216.274,93.626 216.274,96.726 217.075,96.726 217.075,97.726 231.075,97.726 231.075,96.726 231.875,96.726 231.875,93.626 231.075,93.626 231.075,87.825 231.875,87.825 231.875,84.726 231.075,84.726 231.075,83.726" style="fill:none;stroke-width:0.050000mm;stroke:black"/>
<polygon points="236.125,83.726 236.125,84.726 235.325,84.726 235.325,87.825 236.125,87.825 236.125,93.626 235.325,93.626 235.325,96.726 236.125,96.726 236.125,97.726 250.125,97.726 250.125,96.726 250.925,96.726 250.925,93.626 250.125,93.626 250.125,87.825 250.925,87.825 250.925,84.726 250.125,84.726 250.125,83.726" style="fill:none;stroke-width:0.050000mm;stroke:black"/>
<polygon points="255.175,83.726 255.175,84.726 254.375,84.726 254.375,87.825 255.175,87.825 255.175,93.626 254.375,93.626 254.375,96.726 255.175,96.726 255.175,97.726 269.175,97.726 269.175,96.726 269.975,96.726 269.975,93.626 269.175,93.626 269.175,87.825 269.975,87.825 269.975,84.726 269.175,84.726 269.175,83.726" style="fill:none;stroke-width:0.050000mm;stroke:black"/>
<polygon points="274.225,83.726 274.225,84.726 273.425,84.726 273.425,87.825 274.225,87.825 274.225,93.626 273.425,93.626 273.425,96.726 274.225,96.726 274.225,97.726 288.225,97.726 288.225,96.726 289.025,96.726 289.025,93.626 288.225,93.626 288.225,87.825 289.025,87.825 289.025,84.726 288.225,84.726 288.225,83.726" style="fill:none;stroke-width:0.050000mm;stroke:black"/>
<polygon points="293.275,83.726 293.275,84.726 292.475,84.726 292.475,87.825 293.275,87.825 293.275,93.626 292.475,93.626 292.475,96.726 293.275,96.726 293.275,97.726 307.275,97.726 307.275,96.726 308.075,96.726 308.075,93.626 307.275,93.626 307.275,87.825 308.075,87.825 308.075,84.726 307.275,84.726 307.275,83.726" style="fill:none;stroke-width:0.050000mm;stroke:black"/>
<polygon points="312.325,83.726 312.325,84.726 311.525,84.726 311.525,87.825 312.325,87.825 312.325,93.626 311.525,93.626 311.525,96.726 312.325,96.726 312.325,97.726 326.325,97.726 326.325,96.726 327.125,96.726 327.125,93.626 326.325,93.626 326.325,87.825 327.125,87.825 327.125,84.726 326.325,84.726 326.325,83.726" style="fill:none;stroke-width:0.050000mm;stroke:black"/>
<polygon points="164.687,64.676 164.687,65.676 163.887,65.676 163.887,68.775 164.687,68.775 164.687,74.576 163.887,74.576 163.887,77.676 164.687,77.676 164.687,78.676 178.687,78.676 178.687,77.676 179.487,77.676 179.487,74.576 178.687,74.576 178.687,68.775 179.487,68.775 179.487,65.676 178.687,65.676 178.687,64.676" style="fill:none;stroke-width:0.050000mm;stroke:black"/>
<polygon points="183.737,64.676 183.737,65.676 182.937,65.676 182.937,68.775 183.737,68.775 183.737,74.576 182.937,74.576 182.937,77.676 183.737,77.676 183.737,78.676 197.737,78.676 197.737,77.676 198.537,77.676 198.537,74.576 197.737,74.576 197.737,68.775 198.537,68.775 198.537,65.676 197.737,65.676 197.737,64.676" style="fill:none;stroke-width:0.050000mm;stroke:black"/>
<polygon points="202.787,64.676 202.787,65.676 201.987,65.676 201.987,68.775 202.787,68.775 202.787,74.576 201.987,74.576 201.987,77.676 202.787,77.676 202.787,78.676 216.787,78.676 216.787,77.676 217.587,77.676 217.587,74.576 216.787,74.576 216.787,68.775 217.587,68.775 217.587,65.676 216.787,65.676 216.787,64.676" style="fill:none;stroke-width:0.050000mm;stroke:black"/>
<polygon points="221.837,64.676 221.837,65.676 221.037,65.676 221.037,68.775 221.837,68.775 221.837,74.576 221.037,74.576 221.037,77.676 221.837,77.676 221.837,78.676 235.837,78.676 235.837,77.676 236.637,77.676 236.637,74.576 235.837,74.576 235.837,68.775 236.637,68.775 236.637,65.676 235.837,65.676 235.837,64.676" style="fill:none;stroke-width:0.050000mm;stroke:black"/>
<polygon points="240.887,64.676 240.887,65.676 240.087,65.676 240.087,68.775 240.887,68.775 240.887,74.576 240.087,74.576 240.087,77.676 240.887,77.676 240.887,78.676 254.887,78.676 254.887,77.676 255.687,77.676 255.687,74.576 254.887,74.576 254.887,68.775 255.687,68.775 255.687,65.676 254.887,65.676 254.887,64.676" style="fill:none;stroke-width:0.050000mm;stroke:black"/>
<polygon points="267.081,64.676 267.081,65.676 266.281,65.676 266.281,68.775 267.081,68.775 267.081,74.576 266.281,74.576 266.281,77.676 267.081,77.676 267.081,78.676 281.081,78.676 281.081,77.676 281.881,77.676 281.881,74.576 281.081,74.576 281.081,68.775 281.881,68.775 281.881,65.676 281.081,65.676 281.081,64.676" style="fill:none;stroke-width:0.050000mm;stroke:black"/>
<polygon points="293.275,64.676 293.275,65.676 292.475,65.676 292.475,68.775 293.275,68.775 293.275,74.576 292.475,74.576 292.475,77.676 293.275,77.676 293.275,78.676 307.275,78.676 307.275,77.676 308.075,77.676 308.075,74.576 307.275,74.576 307.275,68.775 308.075,68.775 308.075,65.676 307.275,65.676 307.275,64.676" style="fill:none;stroke-width:0.050000mm;stroke:black"/>
<polygon points="312.325,64.676 312.325,65.676 311.525,65.676 311.525,68.775 312.325,68.775 312.325,74.576 311.525,74.576 311.525,77.676 312.325,77.676 312.325,78.676 326.325,78.676 326.325,77.676 327.125,77.676 327.125,74.576 326.325,74.576 326.325,68.775 327.125,68.775 327.125,65.676 326.325,65.676 326.325,64.676" style="fill:none;stroke-width:0.050000mm;stroke:black"/>
<polygon points="281.368,45.626 281.368,46.626 280.568,46.626 280.568,49.726 281.368,49.726 281.368,50.326 279.843,50.326 279.843,47.096 278.118,47.096 278.118,46.176 274.818,46.176 274.818,47.096 273.093,47.096 273.093,50.326 272.268,50.326 272.268,53.126 273.093,53.126 273.093,59.395 274.818,59.395 274.818,60.376 278.118,60.376 278.118,59.395 279.843,59.395 279.843,54.926 281.368,54.926 281.368,55.526 280.568,55.526 280.568,58.626 281.368,58.626 281.368,59.626 295.368,59.626 295.368,58.626 296.168,58.626 296.168,55.526 295.368,55.526 295.368,54.926 296.893,54.926 296.893,59.395 298.618,59.395 298.618,60.376 301.918,60.376 301.918,59.395 303.643,59.395 303.643,53.126 304.468,53.126 304.468,50.326 303.643,50.326 303.643,47.096 301.918,47.096 301.918,46.176 298.618,46.176 298.618,47.096 296.893,47.096 296.893,50.326 295.368,50.326 295.368,49.726 296.168,49.726 296.168,46.626 295.368,46.626 295.368,45.626" style="fill:none;stroke-width:0.050000mm;stroke:black"/>
<polygon points="155.162,45.626 155.162,46.626 154.362,46.626 154.362,49.726 155.162,49.726 155.162,55.526 154.362,55.526 154.362,58.626 155.162,58.626 155.162,59.626 169.162,59.626 169.162,58.626 169.962,58.626 169.962,55.526 169.162,55.526 169.162,49.726 169.962,49.726 169.962,46.626 169.162,46.626 169.162,45.626" style="fill:none;stroke-width:0.050000mm;stroke:black"/>
<polygon points="174.212,45.626 174.212,46.626 173.412,46.626 173.412,49.726 174.212,49.726 174.212,55.526 173.412,55.526 173.412,58.626 174.212,58.626 174.212,59.626 188.212,59.626 188.212,58.626 189.012,58.626 189.012,55.526 188.212,55.526 188.212,49.726 189.012,49.726 189.012,46.626 188.212,46.626 188.212,45.626" style="fill:none;stroke-width:0.050000mm;stroke:black"/>
<polygon points="193.262,45.626 193.262,46.626 192.462,46.626 192.462,49.726 193.262,49.726 193.262,55.526 192.462,55.526 192.462,58.626 193.262,58.626 193.262,59.626 207.262,59.626 207.262,58.626 208.062,58.626 208.062,55.526 207.262,55.526 207.262,49.726 208.062,49.726 208.062,46.626 207.262,46.626 207.262,45.626" style="fill:none;stroke-width:0.050000mm;stroke:black"/>
<polygon points="212.312,45.626 212.312,46.626 211.512,46.626 211.512,49.726 212.312,49.726 212.312,55.526 211.512,55.526 211.512,58.626 212.312,58.626 212.312,59.626 226.312,59.626 226.312,58.626 227.112,58.626 227.112,55.526 226.312,55.526 226.312,49.726 227.112,49.726 227.112,46.626 226.312,46.626 226.312,45.626" style="fill:none;stroke-width:0.050000mm;stroke:black"/>
<polygon points="231.362,45.626 231.362,46.626 230.562,46.626 230.562,49.726 231.362,49.726 231.362,55.526 230.562,55.526 230.562,58.626 231.362,58.626 231.362,59.626 245.362,59.626 245.362,58.626 246.162,58.626 246.162,55.526 245.362,55.526 245.362,49.726 246.162,49.726 246.162,46.626 245.362,46.626 245.362,45.626" style="fill:none;stroke-width:0.050000mm;stroke:black"/>
<polygon points="250.412,45.626 250.412,46.626 249.612,46.626 249.612,49.726 250.412,49.726 250.412,55.526 249.612,55.526 249.612,58.626 250.412,58.626 250.412,59.626 264.412,59.626 264.412,58.626 265.212,58.626 265.212,55.526 264.412,55.526 264.412,49.726 265.212,49.726 265.212,46.626 264.412,46.626 264.412,45.626" style="fill:none;stroke-width:0.050000mm;stroke:black"/>
<polygon points="312.325,45.626 312.325,46.626 311.525,46.626 311.525,49.726 312.325,49.726 312.325,55.526 311.525,55.526 311.525,58.626 312.325,58.626 312.325,59.626 326.325,59.626 326.325,58.626 327.125,58.626 327.125,55.526 326.325,55.526 326.325,49.726 327.125,49.726 327.125,46.626 326.325,46.626 326.325,45.626" style="fill:none;stroke-width:0.050000mm;stroke:black"/>
<polygon points="150.400,26.576 150.400,27.576 149.600,27.576 149.600,30.676 150.400,30.676 150.400,36.476 149.600,36.476 149.600,39.576 150.400,39.576 150.400,40.576 164.400,40.576 164.400,39.576 165.200,39.576 165.200,36.476 164.400,36.476 164.400,30.676 165.200,30.676 165.200,27.576 164.400,27.576 164.400,26.576" style="fill:none;stroke-width:0.050000mm;stroke:black"/>
<polygon points="169.450,26.576 169.450,27.576 168.650,27.576 168.650,30.676 169.450,30.676 169.450,36.476 168.650,36.476 168.650,39.576 169.450,39.576 169.450,40.576 183.450,40.576 183.450,39.576 184.250,39.576 184.250,36.476 183.450,36.476 183.450,30.676 184.250,30.676 184.250,27.576 183.450,27.576 183.450,26.576" style="fill:none;stroke-width:0.050000mm;stroke:black"/>
<polygon points="188.500,26.576 188.500,27.576 187.700,27.576 187.700,30.676 188.500,30.676 188.500,36.476 187.700,36.476 187.700,39.576 188.500,39.576 188.500,40.576 202.500,40.576 202.500,39.576 203.300,39.576 203.300,36.476 202.500,36.476 202.500,30.676 203.300,30.676 203.300,27.576 202.500,27.576 202.500,26.576" style="fill:none;stroke-width:0.050000mm;stroke:black"/>
<polygon points="207.550,26.576 207.550,27.576 206.750,27.576 206.750,30.676 207.550,30.676 207.550,36.476 206.750,36.476 206.750,39.576 207.550,39.576 207.550,40.576 221.550,40.576 221.550,39.576 222.350,39.576 222.350,36.476 221.550,36.476 221.550,30.676 222.350,30.676 222.350,27.576 221.550,27.576 221.550,26.576" style="fill:none;stroke-width:0.050000mm;stroke:black"/>
<polygon points="226.600,26.576 226.600,27.576 225.800,27.576 225.800,30.676 226.600,30.676 226.600,36.476 225.800,36.476 225.800,39.576 226.600,39.576 226.600,40.576 240.600,40.576 240.600,39.576 241.400,39.576 241.400,36.476 240.600,36.476 240.600,30.676 241.400,30.676 241.400,27.576 240.600,27.576 240.600,26.576" style="fill:none;stroke-width:0.050000mm;stroke:black"/>
<polygon points="245.650,26.576 245.650,27.576 244.850,27.576 244.850,30.676 245.650,30.676 245.650,36.476 244.850,36.476 244.850,39.576 245.650,39.576 245.650,40.576 259.649,40.576 259.649,39.576 260.450,39.576 260.450,36.476 259.649,36.476 259.649,30.676 260.450,30.676 260.450,27.576 259.649,27.576 259.649,26.576" style="fill:none;stroke-width:0.050000mm;stroke:black"/>
<polygon points="264.700,26.576 264.700,27.576 263.900,27.576 263.900,30.676 264.700,30.676 264.700,36.476 263.900,36.476 263.900,39.576 264.700,39.576 264.700,40.576 278.700,40.576 278.700,39.576 279.500,39.576 279.500,36.476 278.700,36.476 278.700,30.676 279.500,30.676 279.500,27.576 278.700,27.576 278.700,26.576" style="fill:none;stroke-width:0.050000mm;stroke:black"/>
<polygon points="288.512,26.576 288.512,27.576 287.712,27.576 287.712,30.676 288.512,30.676 288.512,36.476 287.712,36.476 287.712,39.576 288.512,39.576 288.512,40.576 302.512,40.576 302.512,39.576 303.312,39.576 303.312,36.476 302.512,36.476 302.512,30.676 303.312,30.676 303.312,27.576 302.512,27.576 302.512,26.576" style="fill:none;stroke-width:0.050000mm;stroke:black"/>
<polygon points="312.325,26.576 312.325,27.576 311.525,27.576 311.525,30.676 312.325,30.676 312.325,36.476 311.525,36.476 311.525,39.576 312.325,39.576 312.325,40.576 326.325,40.576 326.325,39.576 327.125,39.576 327.125,36.476 326.325,36.476 326.325,30.676 327.125,30.676 327.125,27.576 326.325,27.576 326.325,26.576" style="fill:none;stroke-width:0.050000mm;stroke:black"/>
<polygon points="283.750,7.526 283.750,8.526 282.950,8.526 282.950,11.626 283.750,11.626 283.750,12.226 282.225,12.226 282.225,8.996 280.500,8.996 280.500,8.075 277.200,8.075 277.200,8.996 275.475,8.996 275.475,12.226 274.650,12.226 274.650,15.026 275.475,15.026 275.475,21.296 277.200,21.296 277.200,22.276 280.500,22.276 280.500,21.296 282.225,21.296 282.225,16.826 283.750,16.826 283.750,17.426 282.950,17.426 282.950,20.526 283.750,20.526 283.750,21.526 297.750,21.526 297.750,20.526 298.550,20.526 298.550,17.426 297.750,17.426 297.750,16.826 299.275,16.826 299.275,21.296 301.000,21.296 301.000,22.276 304.300,22.276 304.300,21.296 306.025,21.296 306.025,15.026 306.850,15.026 306.850,12.226 306.025,12.226 306.025,8.996 304.300,8.996 304.300,8.075 301.000,8.075 301.000,8.996 299.275,8.996 299.275,12.226 297.750,12.226 297.750,11.626 298.550,11.626 298.550,8.526 297.750,8.526 297.750,7.526" style="fill:none;stroke-width:0.050000mm;stroke:black"/>
<polygon points="159.925,7.526 159.925,8.526 159.125,8.526 159.125,11.626 159.925,11.626 159.925,17.426 159.125,17.426 159.125,20.526 159.925,20.526 159.925,21.526 173.925,21.526 173.925,20.526 174.725,20.526 174.725,17.426 173.925,17.426 173.925,11.626 174.725,11.626 174.725,8.526 173.925,8.526 173.925,7.526" style="fill:none;stroke-width:0.050000mm;stroke:black"/>
<polygon points="178.975,7.526 178.975,8.526 178.175,8.526 178.175,11.626 178.975,11.626 178.975,17.426 178.175,17.426 178.175,20.526 178.975,20.526 178.975,21.526 192.975,21.526 192.975,20.526 193.775,20.526 193.775,17.426 192.975,17.426 192.975,11.626 193.775,11.626 193.775,8.526 192.975,8.526 192.975,7.526" style="fill:none;stroke-width:0.050000mm;stroke:black"/>
<polygon points="198.025,7.526 198.025,8.526 197.225,8.526 197.225,11.626 198.025,11.626 198.025,17.426 197.225,17.426 197.225,20.526 198.025,20.526 198.025,21.526 212.025,21.526 212.025,20.526 212.825,20.526 212.825,17.426 212.025,17.426 212.025,11.626 212.825,11.626 212.825,8.526 212.025,8.526 212.025,7.526" style="fill:none;stroke-width:0.050000mm;stroke:black"/>
<polygon points="217.075,7.526 217.075,8.526 216.275,8.526 216.275,11.626 217.075,11.626 217.075,17.426 216.275,17.426 216.275,20.526 217.075,20.526 217.075,21.526 231.075,21.526 231.075,20.526 231.875,20.526 231.875,17.426 231.075,17.426 231.075,11.626 231.875,11.626 231.875,8.526 231.075,8.526 231.075,7.526" style="fill:none;stroke-width:0.050000mm;stroke:black"/>
<polygon points="236.125,7.526 236.125,8.526 235.325,8.526 235.325,11.626 236.125,11.626 236.125,17.426 235.325,17.426 235.325,20.526 236.125,20.526 236.125,21.526 250.125,21.526 250.125,20.526 250.925,20.526 250.925,17.426 250.125,17.426 250.125,11.626 250.925,11.626 250.925,8.526 250.125,8.526 250.125,7.526" style="fill:none;stroke-width:0.050000mm;stroke:black"/>
<polygon points="255.175,7.526 255.175,8.526 254.375,8.526 254.375,11.626 255.175,11.626 255.175,17.426 254.375,17.426 254.375,20.526 255.175,20.526 255.175,21.526 269.175,21.526 269.175,20.526 269.975,20.526 269.975,17.426 269.175,17.426 269.175,11.626 269.975,11.626 269.975,8.526 269.175,8.526 269.175,7.526" style="fill:none;stroke-width:0.050000mm;stroke:black"/>
<polygon points="312.325,7.526 312.325,8.526 311.525,8.526 311.525,11.626 312.325,11.626 312.325,17.426 311.525,17.426 311.525,20.526 312.325,20.526 312.325,21.526 326.325,21.526 326.325,20.526 327.125,20.526 327.125,17.426 326.325,17.426 326.325,11.626 327.125,11.626 327.125,8.526 326.325,8.526 326.325,7.526" style="fill:none;stroke-width:0.050000mm;stroke:black"/>
</svg>
