<?xml version="1.0" encoding="UTF-8" standalone="no"?>
<!-- Created with Inkscape (http://www.inkscape.org/) -->

<svg
   version="1.1"
   id="svg2"
   xml:space="preserve"
   width="1213.1346"
   height="421.41733"
   viewBox="0 0 1213.1346 421.41733"
   sodipodi:docname="quefrency-65--outline-left-design.svg"
   inkscape:version="1.1.2 (0a00cf5339, 2022-02-04)"
   xmlns:inkscape="http://www.inkscape.org/namespaces/inkscape"
   xmlns:sodipodi="http://sodipodi.sourceforge.net/DTD/sodipodi-0.dtd"
   xmlns="http://www.w3.org/2000/svg"
   xmlns:svg="http://www.w3.org/2000/svg"><defs
     id="defs6"><clipPath
       clipPathUnits="userSpaceOnUse"
       id="clipPath280"><path
         d="M 0,316.063 H 909.851 V 0 H 0 Z"
         id="path278" /></clipPath><clipPath
       clipPathUnits="userSpaceOnUse"
       id="clipPath292"><path
         d="M 0,316.063 H 909.851 V 0 H 0 Z"
         id="path290" /></clipPath><clipPath
       clipPathUnits="userSpaceOnUse"
       id="clipPath304"><path
         d="M 0,316.063 H 909.851 V 0 H 0 Z"
         id="path302" /></clipPath><clipPath
       clipPathUnits="userSpaceOnUse"
       id="clipPath316"><path
         d="M 0,316.063 H 909.851 V 0 H 0 Z"
         id="path314" /></clipPath><clipPath
       clipPathUnits="userSpaceOnUse"
       id="clipPath352"><path
         d="M 0,316.063 H 909.851 V 0 H 0 Z"
         id="path350" /></clipPath><clipPath
       clipPathUnits="userSpaceOnUse"
       id="clipPath388"><path
         d="M 0,316.063 H 909.851 V 0 H 0 Z"
         id="path386" /></clipPath><clipPath
       clipPathUnits="userSpaceOnUse"
       id="clipPath424"><path
         d="M 0,316.063 H 909.851 V 0 H 0 Z"
         id="path422" /></clipPath><clipPath
       clipPathUnits="userSpaceOnUse"
       id="clipPath436"><path
         d="M 0,316.063 H 909.851 V 0 H 0 Z"
         id="path434" /></clipPath></defs><sodipodi:namedview
     id="namedview4"
     pagecolor="#ffffff"
     bordercolor="#666666"
     borderopacity="1.0"
     inkscape:pageshadow="2"
     inkscape:pageopacity="0.0"
     inkscape:pagecheckerboard="0"
     showgrid="false"
     inkscape:zoom="1.0856173"
     inkscape:cx="434.3151"
     inkscape:cy="210.47932"
     inkscape:window-width="1530"
     inkscape:window-height="836"
     inkscape:window-x="70"
     inkscape:window-y="27"
     inkscape:window-maximized="1"
     inkscape:current-layer="g1363" /><g
     id="g8"
     inkscape:groupmode="layer"
     inkscape:label="quefrency-65-design"
     transform="matrix(1.3333333,0,0,-1.3333333,0,421.41733)"><g
       id="g10"
       transform="translate(36.7246,69.8733)"><path
         d="M 0,0 V -1.698 H -2.268 V -37.984 H 0 v -1.701 h 39.685 v 1.701 h 2.268 V -1.698 H 39.685 V 0 Z"
         style="fill:none;stroke:#231f20;stroke-width:0.709;stroke-linecap:butt;stroke-linejoin:miter;stroke-miterlimit:4;stroke-dasharray:none;stroke-opacity:1"
         id="path12" /></g><g
       id="g46"
       transform="translate(367.4738,123.8733)"><path
         d="M 0,0 V -1.698 H -2.268 V -37.984 H 0 v -1.701 h 39.685 v 1.701 h 2.268 V -1.698 H 39.685 V 0 Z"
         style="fill:none;stroke:#231f20;stroke-width:0.709;stroke-linecap:butt;stroke-linejoin:miter;stroke-miterlimit:4;stroke-dasharray:none;stroke-opacity:1"
         id="path48" /></g><g
       id="g90"
       transform="translate(326.9753,231.8733)"><path
         d="M 0,0 V -1.701 H -2.268 V -37.984 H 0 v -1.701 h 39.685 v 1.701 h 2.268 V -1.701 H 39.685 V 0 Z"
         style="fill:none;stroke:#231f20;stroke-width:0.709;stroke-linecap:butt;stroke-linejoin:miter;stroke-miterlimit:4;stroke-dasharray:none;stroke-opacity:1"
         id="path92" /></g><g
       id="g94"
       transform="translate(29.9753,285.8733)"><path
         d="M 0,0 V -1.701 H -2.268 V -37.984 H 0 v -1.701 h 39.685 v 1.701 h 2.268 V -1.701 H 39.685 V 0 Z"
         style="fill:none;stroke:#231f20;stroke-width:0.709;stroke-linecap:butt;stroke-linejoin:miter;stroke-miterlimit:4;stroke-dasharray:none;stroke-opacity:1"
         id="path96" /></g><g
       id="g118"
       transform="translate(353.9724,285.8733)"><path
         d="M 0,0 V -1.701 H -2.268 V -37.984 H 0 v -1.701 h 39.688 v 1.701 h 2.268 V -1.701 H 39.688 V 0 Z"
         style="fill:none;stroke:#231f20;stroke-width:0.709;stroke-linecap:butt;stroke-linejoin:miter;stroke-miterlimit:4;stroke-dasharray:none;stroke-opacity:1"
         id="path120" /></g><g
       id="g286"><g
         id="g288"
         clip-path="url(#clipPath292)"><g
           id="g294"
           transform="translate(387.3181,136.7001)"><path
             d="m 0,0 v 42.661 c 0,3.131 -2.538,5.67 -5.669,5.67 h -2.162 c -3.131,0 -5.669,2.538 -5.669,5.669 v 42.661 c 0,3.131 2.538,5.67 5.669,5.67 H 7.831 c 3.132,0 5.67,2.538 5.67,5.669 v 48.331 17.008 c 0,3.131 -2.538,5.669 -5.67,5.669 h -383.669 c -6.262,0 -11.338,-5.077 -11.338,-11.339 v -292.677 c 0,-6.262 5.076,-11.338 11.338,-11.338 H 21.33 c 3.131,0 5.669,2.538 5.669,5.669 v 119.338 c 0,3.131 -2.538,5.67 -5.669,5.67 H 5.669 C 2.538,-5.669 0,-3.131 0,0 Z"
             style="fill:none;stroke:#308c9c;stroke-width:0.283;stroke-linecap:butt;stroke-linejoin:miter;stroke-miterlimit:4;stroke-dasharray:none;stroke-opacity:1"
             id="path296" /></g></g></g><g
       id="g1363"
       transform="matrix(2.8346457,0,0,-2.8346457,8.63674,307.21616)"><polygon
         points="108.132,85.196 106.407,85.196 106.407,88.426 105.582,88.426 105.582,91.226 106.407,91.226 106.407,97.495 108.132,97.495 108.132,98.476 111.432,98.476 111.432,97.495 113.157,97.495 113.157,93.025 114.682,93.025 114.682,93.626 113.882,93.626 113.882,96.726 114.682,96.726 114.682,97.726 128.682,97.726 128.682,96.726 129.482,96.726 129.482,93.626 128.682,93.626 128.682,93.025 130.206,93.025 130.206,97.495 131.932,97.495 131.932,98.476 135.232,98.476 135.232,97.495 136.957,97.495 136.957,91.226 137.782,91.226 137.782,88.426 136.957,88.426 136.957,85.196 135.232,85.196 135.232,84.275 131.932,84.275 131.932,85.196 130.206,85.196 130.206,88.426 128.682,88.426 128.682,87.825 129.482,87.825 129.482,84.726 128.682,84.726 128.682,83.726 114.682,83.726 114.682,84.726 113.882,84.726 113.882,87.825 114.682,87.825 114.682,88.426 113.157,88.426 113.157,85.196 111.432,85.196 111.432,84.275 108.132,84.275 "
         style="fill:none;stroke:#000000;stroke-width:0.05mm"
         id="polygon1266" /><polygon
         points="47.719,96.726 48.519,96.726 48.519,93.626 47.719,93.626 47.719,87.825 48.519,87.825 48.519,84.726 47.719,84.726 47.719,83.726 33.719,83.726 33.719,84.726 32.919,84.726 32.919,87.825 33.719,87.825 33.719,93.626 32.919,93.626 32.919,96.726 33.719,96.726 33.719,97.726 47.719,97.726 "
         style="fill:none;stroke:#000000;stroke-width:0.05mm"
         id="polygon1270" /><polygon
         points="71.532,96.726 72.332,96.726 72.332,93.626 71.532,93.626 71.532,87.825 72.332,87.825 72.332,84.726 71.532,84.726 71.532,83.726 57.532,83.726 57.532,84.726 56.732,84.726 56.732,87.825 57.532,87.825 57.532,93.626 56.732,93.626 56.732,96.726 57.532,96.726 57.532,97.726 71.532,97.726 "
         style="fill:none;stroke:#000000;stroke-width:0.05mm"
         id="polygon1272" /><polygon
         points="95.344,96.726 96.144,96.726 96.144,93.626 95.344,93.626 95.344,87.825 96.144,87.825 96.144,84.726 95.344,84.726 95.344,83.726 81.344,83.726 81.344,84.726 80.544,84.726 80.544,87.825 81.344,87.825 81.344,93.626 80.544,93.626 80.544,96.726 81.344,96.726 81.344,97.726 95.344,97.726 "
         style="fill:none;stroke:#000000;stroke-width:0.05mm"
         id="polygon1274" /><polygon
         points="12.882,66.146 11.157,66.146 11.157,69.376 10.332,69.376 10.332,72.176 11.157,72.176 11.157,78.446 12.882,78.446 12.882,79.426 16.182,79.426 16.182,78.446 17.907,78.446 17.907,73.976 19.432,73.976 19.432,74.576 18.632,74.576 18.632,77.676 19.432,77.676 19.432,78.676 33.432,78.676 33.432,77.676 34.232,77.676 34.232,74.576 33.432,74.576 33.432,73.976 34.957,73.976 34.957,78.446 36.682,78.446 36.682,79.426 39.982,79.426 39.982,78.446 41.707,78.446 41.707,72.176 42.532,72.176 42.532,69.376 41.707,69.376 41.707,66.146 39.982,66.146 39.982,65.225 36.682,65.225 36.682,66.146 34.957,66.146 34.957,69.376 33.432,69.376 33.432,68.775 34.232,68.775 34.232,65.676 33.432,65.676 33.432,64.676 19.432,64.676 19.432,65.676 18.632,65.676 18.632,68.775 19.432,68.775 19.432,69.376 17.907,69.376 17.907,66.146 16.182,66.146 16.182,65.225 12.882,65.225 "
         style="fill:none;stroke:#000000;stroke-width:0.05mm"
         id="polygon1276" /><polygon
         points="64.388,77.676 65.188,77.676 65.188,74.576 64.388,74.576 64.388,68.775 65.188,68.775 65.188,65.676 64.388,65.676 64.388,64.676 50.388,64.676 50.388,65.676 49.588,65.676 49.588,68.775 50.388,68.775 50.388,74.576 49.588,74.576 49.588,77.676 50.388,77.676 50.388,78.676 64.388,78.676 "
         style="fill:none;stroke:#000000;stroke-width:0.05mm"
         id="polygon1278" /><polygon
         points="83.438,77.676 84.238,77.676 84.238,74.576 83.438,74.576 83.438,68.775 84.238,68.775 84.238,65.676 83.438,65.676 83.438,64.676 69.438,64.676 69.438,65.676 68.638,65.676 68.638,68.775 69.438,68.775 69.438,74.576 68.638,74.576 68.638,77.676 69.438,77.676 69.438,78.676 83.438,78.676 "
         style="fill:none;stroke:#000000;stroke-width:0.05mm"
         id="polygon1280" /><polygon
         points="102.488,77.676 103.288,77.676 103.288,74.576 102.488,74.576 102.488,68.775 103.288,68.775 103.288,65.676 102.488,65.676 102.488,64.676 88.488,64.676 88.488,65.676 87.688,65.676 87.688,68.775 88.488,68.775 88.488,74.576 87.688,74.576 87.688,77.676 88.488,77.676 88.488,78.676 102.488,78.676 "
         style="fill:none;stroke:#000000;stroke-width:0.05mm"
         id="polygon1282" /><polygon
         points="121.538,77.676 122.338,77.676 122.338,74.576 121.538,74.576 121.538,68.775 122.338,68.775 122.338,65.676 121.538,65.676 121.538,64.676 107.538,64.676 107.538,65.676 106.738,65.676 106.738,68.775 107.538,68.775 107.538,74.576 106.738,74.576 106.738,77.676 107.538,77.676 107.538,78.676 121.538,78.676 "
         style="fill:none;stroke:#000000;stroke-width:0.05mm"
         id="polygon1284" /><polygon
         points="28.669,58.626 29.469,58.626 29.469,55.526 28.669,55.526 28.669,49.726 29.469,49.726 29.469,46.626 28.669,46.626 28.669,45.626 14.669,45.626 14.669,46.626 13.869,46.626 13.869,49.726 14.669,49.726 14.669,55.526 13.869,55.526 13.869,58.626 14.669,58.626 14.669,59.626 28.669,59.626 "
         style="fill:none;stroke:#000000;stroke-width:0.05mm"
         id="polygon1288" /><polygon
         points="54.863,58.626 55.663,58.626 55.663,55.526 54.863,55.526 54.863,49.726 55.663,49.726 55.663,46.626 54.863,46.626 54.863,45.626 40.863,45.626 40.863,46.626 40.063,46.626 40.063,49.726 40.863,49.726 40.863,55.526 40.063,55.526 40.063,58.626 40.863,58.626 40.863,59.626 54.863,59.626 "
         style="fill:none;stroke:#000000;stroke-width:0.05mm"
         id="polygon1290" /><polygon
         points="73.913,58.626 74.713,58.626 74.713,55.526 73.913,55.526 73.913,49.726 74.713,49.726 74.713,46.626 73.913,46.626 73.913,45.626 59.913,45.626 59.913,46.626 59.113,46.626 59.113,49.726 59.913,49.726 59.913,55.526 59.113,55.526 59.113,58.626 59.913,58.626 59.913,59.626 73.913,59.626 "
         style="fill:none;stroke:#000000;stroke-width:0.05mm"
         id="polygon1292" /><polygon
         points="92.963,58.626 93.763,58.626 93.763,55.526 92.963,55.526 92.963,49.726 93.763,49.726 93.763,46.626 92.963,46.626 92.963,45.626 78.963,45.626 78.963,46.626 78.163,46.626 78.163,49.726 78.963,49.726 78.963,55.526 78.163,55.526 78.163,58.626 78.963,58.626 78.963,59.626 92.963,59.626 "
         style="fill:none;stroke:#000000;stroke-width:0.05mm"
         id="polygon1294" /><polygon
         points="112.013,58.626 112.813,58.626 112.813,55.526 112.013,55.526 112.013,49.726 112.813,49.726 112.813,46.626 112.013,46.626 112.013,45.626 98.013,45.626 98.013,46.626 97.213,46.626 97.213,49.726 98.013,49.726 98.013,55.526 97.213,55.526 97.213,58.626 98.013,58.626 98.013,59.626 112.013,59.626 "
         style="fill:none;stroke:#000000;stroke-width:0.05mm"
         id="polygon1296" /><polygon
         points="131.063,58.626 131.863,58.626 131.863,55.526 131.063,55.526 131.063,49.726 131.863,49.726 131.863,46.626 131.063,46.626 131.063,45.626 117.063,45.626 117.063,46.626 116.263,46.626 116.263,49.726 117.063,49.726 117.063,55.526 116.263,55.526 116.263,58.626 117.063,58.626 117.063,59.626 131.063,59.626 "
         style="fill:none;stroke:#000000;stroke-width:0.05mm"
         id="polygon1298" /><polygon
         points="26.288,39.576 27.088,39.576 27.088,36.476 26.288,36.476 26.288,30.676 27.088,30.676 27.088,27.576 26.288,27.576 26.288,26.576 12.288,26.576 12.288,27.576 11.488,27.576 11.488,30.676 12.288,30.676 12.288,36.476 11.488,36.476 11.488,39.576 12.288,39.576 12.288,40.576 26.288,40.576 "
         style="fill:none;stroke:#000000;stroke-width:0.05mm"
         id="polygon1300" /><polygon
         points="50.101,39.576 50.901,39.576 50.901,36.476 50.101,36.476 50.101,30.676 50.901,30.676 50.901,27.576 50.101,27.576 50.101,26.576 36.101,26.576 36.101,27.576 35.301,27.576 35.301,30.676 36.101,30.676 36.101,36.476 35.301,36.476 35.301,39.576 36.101,39.576 36.101,40.576 50.101,40.576 "
         style="fill:none;stroke:#000000;stroke-width:0.05mm"
         id="polygon1302" /><polygon
         points="69.151,39.576 69.951,39.576 69.951,36.476 69.151,36.476 69.151,30.676 69.951,30.676 69.951,27.576 69.151,27.576 69.151,26.576 55.151,26.576 55.151,27.576 54.351,27.576 54.351,30.676 55.151,30.676 55.151,36.476 54.351,36.476 54.351,39.576 55.151,39.576 55.151,40.576 69.151,40.576 "
         style="fill:none;stroke:#000000;stroke-width:0.05mm"
         id="polygon1304" /><polygon
         points="88.201,39.576 89.001,39.576 89.001,36.476 88.201,36.476 88.201,30.676 89.001,30.676 89.001,27.576 88.201,27.576 88.201,26.576 74.201,26.576 74.201,27.576 73.401,27.576 73.401,30.676 74.201,30.676 74.201,36.476 73.401,36.476 73.401,39.576 74.201,39.576 74.201,40.576 88.201,40.576 "
         style="fill:none;stroke:#000000;stroke-width:0.05mm"
         id="polygon1306" /><polygon
         points="107.251,39.576 108.051,39.576 108.051,36.476 107.251,36.476 107.251,30.676 108.051,30.676 108.051,27.576 107.251,27.576 107.251,26.576 93.251,26.576 93.251,27.576 92.451,27.576 92.451,30.676 93.251,30.676 93.251,36.476 92.451,36.476 92.451,39.576 93.251,39.576 93.251,40.576 107.251,40.576 "
         style="fill:none;stroke:#000000;stroke-width:0.05mm"
         id="polygon1308" /><polygon
         points="40.576,20.526 41.376,20.526 41.376,17.426 40.576,17.426 40.576,11.626 41.376,11.626 41.376,8.526 40.576,8.526 40.576,7.526 26.576,7.526 26.576,8.526 25.776,8.526 25.776,11.626 26.576,11.626 26.576,17.426 25.776,17.426 25.776,20.526 26.576,20.526 26.576,21.526 40.576,21.526 "
         style="fill:none;stroke:#000000;stroke-width:0.05mm"
         id="polygon1314" /><polygon
         points="59.626,20.526 60.426,20.526 60.426,17.426 59.626,17.426 59.626,11.626 60.426,11.626 60.426,8.526 59.626,8.526 59.626,7.526 45.626,7.526 45.626,8.526 44.826,8.526 44.826,11.626 45.626,11.626 45.626,17.426 44.826,17.426 44.826,20.526 45.626,20.526 45.626,21.526 59.626,21.526 "
         style="fill:none;stroke:#000000;stroke-width:0.05mm"
         id="polygon1316" /><polygon
         points="78.676,20.526 79.476,20.526 79.476,17.426 78.676,17.426 78.676,11.626 79.476,11.626 79.476,8.526 78.676,8.526 78.676,7.526 64.676,7.526 64.676,8.526 63.876,8.526 63.876,11.626 64.676,11.626 64.676,17.426 63.876,17.426 63.876,20.526 64.676,20.526 64.676,21.526 78.676,21.526 "
         style="fill:none;stroke:#000000;stroke-width:0.05mm"
         id="polygon1318" /><polygon
         points="97.726,20.526 98.525,20.526 98.525,17.426 97.726,17.426 97.726,11.626 98.525,11.626 98.525,8.526 97.726,8.526 97.726,7.526 83.726,7.526 83.726,8.526 82.926,8.526 82.926,11.626 83.726,11.626 83.726,17.426 82.926,17.426 82.926,20.526 83.726,20.526 83.726,21.526 97.726,21.526 "
         style="fill:none;stroke:#000000;stroke-width:0.05mm"
         id="polygon1320" /><polygon
         points="116.775,20.526 117.575,20.526 117.575,17.426 116.775,17.426 116.775,11.626 117.575,11.626 117.575,8.526 116.775,8.526 116.775,7.526 102.775,7.526 102.775,8.526 101.976,8.526 101.976,11.626 102.775,11.626 102.775,17.426 101.976,17.426 101.976,20.526 102.775,20.526 102.775,21.526 116.775,21.526 "
         style="fill:none;stroke:#000000;stroke-width:0.05mm"
         id="polygon1322" /></g></g></svg>
